REM DIRINDEX 1\2\6,1\2\7,1\2\8,1\2\9,1\3\10,1\3\11,1\4\12,1\4\13,1\4\14,1\5\15,1\5\16,1\5\17
REM DIRNAME folder01,folder02,folder03,folder04,folder05,folder06,folder07,folder08,folder09,folder10,folder11,folder12,folder13,folder14,folder15,folder16,folder17
TITLE ""
FILE "1400_3_sec05_0433_0448.mp3" MP3
  TRACK 01 AUDIO
    TITLE "0:"
    INDEX 01 00:00:00
  TRACK 02 AUDIO
    TITLE "17:cjc029_5296"
    INDEX 01 00:00:15
  TRACK 03 AUDIO
    TITLE "0:"
    INDEX 01 00:01:26
  TRACK 04 AUDIO
    TITLE "16:cjc029_5297"
    INDEX 01 00:01:32
  TRACK 05 AUDIO
    TITLE "0:"
    INDEX 01 00:02:38
  TRACK 06 AUDIO
    TITLE "17:cjc029_5298"
    INDEX 01 00:03:25
  TRACK 07 AUDIO
    TITLE "0:"
    INDEX 01 00:04:62
  TRACK 08 AUDIO
    TITLE "16:cjc029_5299"
    INDEX 01 00:04:68
  TRACK 09 AUDIO
    TITLE "0:"
    INDEX 01 00:06:08
  TRACK 10 AUDIO
    TITLE "17:cjc029_5300"
    INDEX 01 00:06:71
  TRACK 11 AUDIO
    TITLE "0:"
    INDEX 01 00:09:02
  TRACK 12 AUDIO
    TITLE "16:cjc029_5301"
    INDEX 01 00:09:08
  TRACK 13 AUDIO
    TITLE "0:"
    INDEX 01 00:10:00
  TRACK 14 AUDIO
    TITLE "17:cjc029_5302"
    INDEX 01 00:10:61
  TRACK 15 AUDIO
    TITLE "0:"
    INDEX 01 00:13:37
  TRACK 16 AUDIO
    TITLE "16:cjc029_5303"
    INDEX 01 00:13:41
  TRACK 17 AUDIO
    TITLE "0:"
    INDEX 01 00:14:56
  TRACK 18 AUDIO
    TITLE "17:cjc029_5304"
    INDEX 01 00:15:40
  TRACK 19 AUDIO
    TITLE "0:"
    INDEX 01 00:18:31
  TRACK 20 AUDIO
    TITLE "16:cjc029_5305"
    INDEX 01 00:18:39
  TRACK 21 AUDIO
    TITLE "0:"
    INDEX 01 00:19:42
  TRACK 22 AUDIO
    TITLE "17:cjc029_5306"
    INDEX 01 00:20:30
  TRACK 23 AUDIO
    TITLE "0:"
    INDEX 01 00:21:62
  TRACK 24 AUDIO
    TITLE "16:cjc029_5307"
    INDEX 01 00:21:68
  TRACK 25 AUDIO
    TITLE "0:"
    INDEX 01 00:23:14
  TRACK 26 AUDIO
    TITLE "17:cjc029_5308"
    INDEX 01 00:24:00
  TRACK 27 AUDIO
    TITLE "0:"
    INDEX 01 00:25:07
  TRACK 28 AUDIO
    TITLE "16:cjc029_5309"
    INDEX 01 00:25:15
  TRACK 29 AUDIO
    TITLE "0:"
    INDEX 01 00:26:18
  TRACK 30 AUDIO
    TITLE "17:cjc029_5310"
    INDEX 01 00:27:04
  TRACK 31 AUDIO
    TITLE "0:"
    INDEX 01 00:28:17
  TRACK 32 AUDIO
    TITLE "16:cjc029_5311"
    INDEX 01 00:28:23
  TRACK 33 AUDIO
    TITLE "0:"
    INDEX 01 00:29:38
  TRACK 34 AUDIO
    TITLE "17:cjc029_5312"
    INDEX 01 00:30:24
  TRACK 35 AUDIO
    TITLE "0:"
    INDEX 01 00:31:67
  TRACK 36 AUDIO
    TITLE "16:cjc029_5313"
    INDEX 01 00:31:73
  TRACK 37 AUDIO
    TITLE "0:"
    INDEX 01 00:33:15
  TRACK 38 AUDIO
    TITLE "17:cjc029_5314"
    INDEX 01 00:34:00
  TRACK 39 AUDIO
    TITLE "0:"
    INDEX 01 00:35:21
  TRACK 40 AUDIO
    TITLE "16:cjc029_5315"
    INDEX 01 00:35:29
  TRACK 41 AUDIO
    TITLE "0:"
    INDEX 01 00:36:38
  TRACK 42 AUDIO
    TITLE "17:cjc029_5316"
    INDEX 01 00:37:22
  TRACK 43 AUDIO
    TITLE "0:"
    INDEX 01 00:38:20
  TRACK 44 AUDIO
    TITLE "16:cjc029_5317"
    INDEX 01 00:38:26
  TRACK 45 AUDIO
    TITLE "0:"
    INDEX 01 00:39:41
  TRACK 46 AUDIO
    TITLE "17:cjc029_5318"
    INDEX 01 00:40:26
  TRACK 47 AUDIO
    TITLE "0:"
    INDEX 01 00:42:70
  TRACK 48 AUDIO
    TITLE "16:cjc029_5319"
    INDEX 01 00:43:01
  TRACK 49 AUDIO
    TITLE "0:"
    INDEX 01 00:44:14
  TRACK 50 AUDIO
    TITLE "17:cjc029_5320"
    INDEX 01 00:44:73
  TRACK 51 AUDIO
    TITLE "0:"
    INDEX 01 00:46:09
  TRACK 52 AUDIO
    TITLE "16:cjc029_5321"
    INDEX 01 00:46:15
  TRACK 53 AUDIO
    TITLE "0:"
    INDEX 01 00:47:30
  TRACK 54 AUDIO
    TITLE "17:cjc029_5322"
    INDEX 01 00:48:14
  TRACK 55 AUDIO
    TITLE "0:"
    INDEX 01 00:49:00
  TRACK 56 AUDIO
    TITLE "16:cjc029_5323"
    INDEX 01 00:49:08
  TRACK 57 AUDIO
    TITLE "0:"
    INDEX 01 00:50:11
  TRACK 58 AUDIO
    TITLE "17:cjc029_5324"
    INDEX 01 00:50:66
  TRACK 59 AUDIO
    TITLE "0:"
    INDEX 01 00:51:52
  TRACK 60 AUDIO
    TITLE "16:cjc029_5325"
    INDEX 01 00:51:60
  TRACK 61 AUDIO
    TITLE "0:"
    INDEX 01 00:52:65
  TRACK 62 AUDIO
    TITLE "17:cjc029_5326"
    INDEX 01 00:53:53
  TRACK 63 AUDIO
    TITLE "0:"
    INDEX 01 00:54:60
  TRACK 64 AUDIO
    TITLE "16:cjc029_5327"
    INDEX 01 00:54:66
  TRACK 65 AUDIO
    TITLE "0:"
    INDEX 01 00:56:02
